<svg width="44" height="44" viewBox="0 0 44 44" fill="none" xmlns="http://www.w3.org/2000/svg">
<g clip-path="url(#clip0_36_2148)">
<rect width="44" height="44" rx="12" fill="#F5F5F5"/>
<g clip-path="url(#clip1_36_2148)">
<mask id="mask0_36_2148" style="mask-type:alpha" maskUnits="userSpaceOnUse" x="8" y="8" width="28" height="28">
<rect x="8" y="8" width="28" height="28" fill="white"/>
</mask>
<g mask="url(#mask0_36_2148)">
<path fill-rule="evenodd" clip-rule="evenodd" d="M33.6667 16.8667H33.2V13.6C33.1985 12.312 32.1547 11.2682 30.8667 11.2667H13.1333C11.8453 11.2682 10.8015 12.312 10.8 13.6V16.8667H10.3333C9.04533 16.8682 8.00152 17.912 8 19.2V26.6667C8.00152 27.9547 9.04533 28.9985 10.3333 29H10.8V32.2667C10.8 32.5244 11.0089 32.7334 11.2667 32.7334H12.2C12.3947 32.7335 12.569 32.6128 12.6373 32.4305L13.9234 29H30.0766L31.3627 32.4305C31.431 32.6128 31.6053 32.7335 31.8 32.7334H32.7333C32.9911 32.7334 33.2 32.5244 33.2 32.2667V29H33.6667C34.9547 28.9985 35.9985 27.9547 36 26.6667V19.2C35.9985 17.912 34.9547 16.8682 33.6667 16.8667ZM11.7333 13.6C11.7333 12.8268 12.3601 12.2 13.1333 12.2H30.8667C31.6399 12.2 32.2667 12.8268 32.2667 13.6V16.8667H30.8667C30.6089 16.8667 30.4 17.0756 30.4 17.3333V22.4667H13.6V17.3333C13.6 17.0756 13.391 16.8667 13.1333 16.8667H11.7333V13.6ZM10.3333 17.8C9.56012 17.8 8.93333 18.4268 8.93333 19.2V22.4667H12.6667V17.8H10.3333ZM11.8766 31.8H11.7333V29H12.9266L11.8766 31.8ZM32.1234 31.8H32.2667V29H31.0734L32.1234 31.8ZM35.0667 26.6667C35.0667 27.4399 34.4399 28.0667 33.6667 28.0667H10.3333C9.56012 28.0667 8.93333 27.4399 8.93333 26.6667V23.4H35.0667V26.6667ZM31.3333 22.4667H35.0667V19.2C35.0667 18.4268 34.4399 17.8 33.6667 17.8H31.3333V22.4667Z" fill="#808080"/>
</g>
</g>
</g>
<defs>
<clipPath id="clip0_36_2148">
<rect width="44" height="44" fill="white"/>
</clipPath>
<clipPath id="clip1_36_2148">
<rect width="28" height="28" fill="white" transform="translate(8 8)"/>
</clipPath>
</defs>
</svg>
