<svg width="44" height="44" viewBox="0 0 44 44" fill="none" xmlns="http://www.w3.org/2000/svg">
<g clip-path="url(#clip0_36_2145)">
<rect width="44" height="44" rx="12" fill="#F5F5F5"/>
<g clip-path="url(#clip1_36_2145)">
<mask id="mask0_36_2145" style="mask-type:alpha" maskUnits="userSpaceOnUse" x="8" y="8" width="28" height="28">
<rect x="8" y="8" width="28" height="28" fill="white"/>
</mask>
<g mask="url(#mask0_36_2145)">
<path fill-rule="evenodd" clip-rule="evenodd" d="M34.6875 26.8125H35.125C35.241 26.8125 35.3523 26.8586 35.4344 26.9406C35.5164 27.0227 35.5625 27.134 35.5625 27.25V29C35.5625 29.116 35.5164 29.2273 35.4344 29.3094C35.3523 29.3914 35.241 29.4375 35.125 29.4375H34.6875V31.1875C34.6875 31.3035 34.6414 31.4148 34.5594 31.4969C34.4773 31.5789 34.366 31.625 34.25 31.625H32.9375C32.8364 31.625 32.7384 31.59 32.6602 31.5259C32.582 31.4618 32.5285 31.3725 32.5088 31.2734L32.1413 29.4375H11.8588L11.4913 31.2734C11.4715 31.3725 11.418 31.4618 11.3398 31.5259C11.2616 31.59 11.1636 31.625 11.0625 31.625H9.75C9.63397 31.625 9.52269 31.5789 9.44064 31.4969C9.35859 31.4148 9.3125 31.3035 9.3125 31.1875V29.4375H8.875C8.75897 29.4375 8.64769 29.3914 8.56564 29.3094C8.48359 29.2273 8.4375 29.116 8.4375 29V27.25C8.4375 27.134 8.48359 27.0227 8.56564 26.9406C8.64769 26.8586 8.75897 26.8125 8.875 26.8125H9.3125V23.3125C9.31311 22.8486 9.49768 22.4038 9.82573 22.0757C10.1538 21.7477 10.5986 21.5631 11.0625 21.5625V14.125C11.0631 13.6611 11.2477 13.2163 11.5757 12.8882C11.9038 12.5602 12.3486 12.3756 12.8125 12.375H31.1875C31.6514 12.3756 32.0962 12.5602 32.4243 12.8882C32.7523 13.2163 32.9369 13.6611 32.9375 14.125V21.5625C33.4014 21.5631 33.8462 21.7477 34.1743 22.0757C34.5023 22.4038 34.6869 22.8486 34.6875 23.3125V26.8125ZM12.1941 13.5066C12.0301 13.6707 11.9378 13.893 11.9375 14.125V21.5625H12.8125V19.8125C12.8131 19.3486 12.9977 18.9038 13.3257 18.5757C13.6538 18.2477 14.0986 18.0631 14.5625 18.0625H19.8125C20.2764 18.0631 20.7212 18.2477 21.0493 18.5757C21.3773 18.9038 21.5619 19.3486 21.5625 19.8125V21.5625H22.4375V19.8125C22.4381 19.3486 22.6227 18.9038 22.9507 18.5757C23.2788 18.2477 23.7236 18.0631 24.1875 18.0625H29.4375C29.9014 18.0631 30.3462 18.2477 30.6743 18.5757C31.0023 18.9038 31.1869 19.3486 31.1875 19.8125V21.5625H32.0625V14.125C32.0622 13.893 31.9699 13.6707 31.8059 13.5066C31.6419 13.3426 31.4195 13.2503 31.1875 13.25H12.8125C12.5805 13.2503 12.3582 13.3426 12.1941 13.5066ZM30.3125 19.8125V21.5625H23.3125V19.8125C23.3128 19.5805 23.4051 19.3582 23.5691 19.1941C23.7331 19.0301 23.9555 18.9378 24.1875 18.9375H29.4375C29.6695 18.9378 29.8919 19.0301 30.0559 19.1941C30.2199 19.3582 30.3122 19.5805 30.3125 19.8125ZM20.6875 21.5625V19.8125C20.6872 19.5805 20.5949 19.3582 20.4309 19.1941C20.2669 19.0301 20.0445 18.9378 19.8125 18.9375H14.5625C14.3305 18.9378 14.1082 19.0301 13.9441 19.1941C13.7801 19.3582 13.6878 19.5805 13.6875 19.8125V21.5625H20.6875ZM10.1875 23.3125C10.1878 23.0805 10.2801 22.8581 10.4441 22.6941C10.6082 22.5301 10.8305 22.4378 11.0625 22.4375H32.9375C33.1695 22.4378 33.3919 22.5301 33.5559 22.6941C33.7199 22.8581 33.8122 23.0805 33.8125 23.3125V26.8125H10.1875V23.3125ZM10.1875 30.75H10.7037L10.9662 29.4375H10.1875V30.75ZM33.8125 30.75H33.2962L33.0338 29.4375H33.8125V30.75ZM9.3125 28.5625H34.6875V27.6875H9.3125V28.5625Z" fill="#808080"/>
</g>
</g>
</g>
<defs>
<clipPath id="clip0_36_2145">
<rect width="44" height="44" fill="white"/>
</clipPath>
<clipPath id="clip1_36_2145">
<rect width="28" height="28" fill="white" transform="translate(8 8)"/>
</clipPath>
</defs>
</svg>
