<svg width="44" height="44" viewBox="0 0 44 44" fill="none" xmlns="http://www.w3.org/2000/svg">
<g clip-path="url(#clip0_36_2150)">
<rect width="44" height="44" rx="12" fill="#F5F5F5"/>
<g clip-path="url(#clip1_36_2150)">
<mask id="mask0_36_2150" style="mask-type:alpha" maskUnits="userSpaceOnUse" x="8" y="8" width="28" height="28">
<rect x="8" y="8" width="28" height="28" fill="white"/>
</mask>
<g mask="url(#mask0_36_2150)">
<path fill-rule="evenodd" clip-rule="evenodd" d="M27.8313 22.0549H27.7875L28.2508 12.1568C28.2637 11.8805 28.2737 11.6679 28.2814 11.5034C28.3052 10.9989 28.3076 10.9465 28.3079 10.8941L28.3079 10.8689C28.3079 9.28696 27.0199 8 25.4368 8H18.5633C16.9801 8 15.6921 9.28696 15.6921 10.8689L15.692 10.8895C15.6918 10.9373 15.6941 10.9852 15.7488 12.1501C15.7676 12.5516 15.7927 13.0858 15.8261 13.7984L16.2126 22.0549H16.1688C15.3999 22.0549 14.7743 22.6805 14.7743 23.4494V25.4832C14.7743 26.2521 15.3999 26.8777 16.1688 26.8777H16.4511V31.3894V34.8478C16.4511 35.4831 16.968 36 17.6033 36C18.2051 36 18.7099 35.5297 18.7526 34.9294L19.3251 26.8777H24.6752L25.2477 34.9295C25.2902 35.5297 25.7951 36 26.3969 36C27.0322 36 27.5491 35.4831 27.5491 34.8478V26.8777H27.8313C28.6003 26.8777 29.2258 26.2521 29.2258 25.4832V23.4494C29.2258 22.6805 28.6003 22.0549 27.8313 22.0549ZM17.2714 34.8478V31.3894V26.8777H18.5027L17.9344 34.8713C17.9221 35.0442 17.7767 35.1797 17.6033 35.1797C17.4202 35.1797 17.2714 35.0308 17.2714 34.8478ZM27.4314 12.1185L26.9663 22.0549H17.0338L16.6454 13.7601C16.6113 13.0319 16.586 12.491 16.5671 12.0883C16.5137 10.9509 16.5121 10.9165 16.5123 10.8821L16.5124 10.8689C16.5124 9.73934 17.4324 8.82031 18.5632 8.82031H25.4368C26.5676 8.82031 27.4876 9.73934 27.4876 10.8689L27.4876 10.8855C27.4875 10.9222 27.4858 10.9589 27.4622 11.4609C27.4545 11.6249 27.4445 11.8387 27.4314 12.1185L27.4314 12.1185ZM26.7288 34.8478C26.7288 35.0308 26.5798 35.1797 26.3969 35.1797C26.2235 35.1797 26.078 35.0442 26.0657 34.8713L25.4975 26.8777H26.7288V34.8478ZM27.8313 26.0574C28.148 26.0574 28.4055 25.7998 28.4055 25.4832V23.4494C28.4055 23.1328 28.148 22.8752 27.8313 22.8752H16.1687C15.8521 22.8752 15.5945 23.1328 15.5945 23.4494V25.4832C15.5945 25.7998 15.8521 26.0574 16.1687 26.0574H27.8313Z" fill="#808080"/>
</g>
</g>
</g>
<defs>
<clipPath id="clip0_36_2150">
<rect width="44" height="44" fill="white"/>
</clipPath>
<clipPath id="clip1_36_2150">
<rect width="28" height="28" fill="white" transform="translate(8 8)"/>
</clipPath>
</defs>
</svg>
