<svg width="24" height="24" viewBox="0 0 24 24" fill="none" xmlns="http://www.w3.org/2000/svg">
<path d="M4.9972 21.2499H4.99695C4.91801 21.2499 4.86594 21.2156 4.84059 21.1813C4.79349 21.1174 4.75 21.0184 4.75 20.8638V3.69774C4.75 3.2668 5.21468 2.75 5.8818 2.75H18.1849C18.8157 2.75 19.25 3.23343 19.25 3.69774V20.8639C19.25 21.1034 19.1815 21.1879 19.1626 21.2076C19.1409 21.2303 19.1058 21.25 19.0466 21.25C18.9832 21.25 18.8607 21.2254 18.6657 21.0684L18.6651 21.0679L13.18 16.6617C13.1799 16.6617 13.1798 16.6616 13.1797 16.6615C12.8545 16.3995 12.4366 16.2799 12.0414 16.2799C11.6471 16.2799 11.2287 16.399 10.9036 16.6606C10.9033 16.6608 10.903 16.6611 10.9027 16.6613L5.40009 21.0679L5.39843 21.0692C5.21683 21.2155 5.07327 21.2499 4.9972 21.2499Z" stroke="#808080" stroke-width="1.5"/>
</svg>
